%TF.GenerationSoftware,KiCad,Pcbnew,8.0.2*%
%TF.CreationDate,2024-06-06T14:13:48+02:00*%
%TF.ProjectId,nollbricka24,6e6f6c6c-6272-4696-936b-6132342e6b69,rev?*%
%TF.SameCoordinates,Original*%
%TF.FileFunction,Soldermask,Top*%
%TF.FilePolarity,Negative*%
%FSLAX46Y46*%
G04 Gerber Fmt 4.6, Leading zero omitted, Abs format (unit mm)*
G04 Created by KiCad (PCBNEW 8.0.2) date 2024-06-06 14:13:48*
%MOMM*%
%LPD*%
G01*
G04 APERTURE LIST*
G04 Aperture macros list*
%AMRotRect*
0 Rectangle, with rotation*
0 The origin of the aperture is its center*
0 $1 length*
0 $2 width*
0 $3 Rotation angle, in degrees counterclockwise*
0 Add horizontal line*
21,1,$1,$2,0,0,$3*%
G04 Aperture macros list end*
%ADD10C,9.000000*%
%ADD11C,0.300000*%
%ADD12R,1.700000X0.650000*%
%ADD13C,2.200000*%
%ADD14C,2.000000*%
%ADD15RotRect,2.000000X1.200000X5.000000*%
%ADD16RotRect,2.000000X1.200000X219.000000*%
%ADD17RotRect,2.000000X1.200000X39.000000*%
%ADD18RotRect,2.000000X1.200000X107.000000*%
%ADD19RotRect,2.000000X1.200000X355.000000*%
%ADD20R,2.000000X1.200000*%
%ADD21RotRect,2.000000X1.200000X73.000000*%
%ADD22RotRect,2.000000X1.200000X321.000000*%
%ADD23RotRect,2.000000X1.200000X253.000000*%
%ADD24RotRect,2.000000X1.200000X185.000000*%
%ADD25RotRect,2.000000X1.200000X287.000000*%
%ADD26RotRect,2.000000X1.200000X141.000000*%
%ADD27RotRect,2.000000X1.200000X175.000000*%
%ADD28R,1.700000X1.700000*%
%ADD29O,1.700000X1.700000*%
%ADD30R,1.905000X2.000000*%
%ADD31O,1.905000X2.000000*%
G04 APERTURE END LIST*
D10*
X115068538Y-61670000D02*
X115068538Y-85470000D01*
X84588538Y-62000000D02*
G75*
G02*
X115068538Y-62000000I15240000J0D01*
G01*
X115068538Y-85470000D02*
G75*
G02*
X84588545Y-85800000I-15233658J-750460D01*
G01*
X84588538Y-62000000D02*
X84588538Y-85800000D01*
D11*
G36*
X84288346Y-34640000D02*
G01*
X84288346Y-33350397D01*
X77873552Y-33350397D01*
X77454950Y-33308693D01*
X77092969Y-33115632D01*
X76952090Y-32726815D01*
X76951291Y-32686057D01*
X76951291Y-28592547D01*
X77051935Y-28214892D01*
X77412118Y-27980979D01*
X77813659Y-27928859D01*
X77873552Y-27928206D01*
X84288346Y-27928206D01*
X84288346Y-26636650D01*
X77873552Y-26636650D01*
X77390616Y-26657693D01*
X76963808Y-26719262D01*
X76478784Y-26860356D01*
X76085730Y-27063801D01*
X75780179Y-27324055D01*
X75514491Y-27720819D01*
X75369830Y-28186867D01*
X75335380Y-28602316D01*
X75335380Y-32674333D01*
X75369830Y-33090344D01*
X75476155Y-33468641D01*
X75716941Y-33880143D01*
X76001313Y-34153578D01*
X76372073Y-34371515D01*
X76833685Y-34528481D01*
X77242203Y-34602901D01*
X77706220Y-34637638D01*
X77873552Y-34640000D01*
X84288346Y-34640000D01*
G37*
G36*
X87238799Y-34640000D02*
G01*
X87238799Y-33059260D01*
X85355198Y-33059260D01*
X85355198Y-34640000D01*
X87238799Y-34640000D01*
G37*
G36*
X99589672Y-34640000D02*
G01*
X94296441Y-26636650D01*
X93143614Y-26636650D01*
X87819120Y-34640000D01*
X89626517Y-34640000D01*
X93725889Y-28348304D01*
X97758827Y-34640000D01*
X99589672Y-34640000D01*
G37*
G36*
X101963712Y-34640000D02*
G01*
X101963712Y-33059260D01*
X100080111Y-33059260D01*
X100080111Y-34640000D01*
X101963712Y-34640000D01*
G37*
G36*
X110133147Y-34640000D02*
G01*
X110616083Y-34619002D01*
X111042891Y-34557542D01*
X111527914Y-34416627D01*
X111920969Y-34213316D01*
X112226519Y-33953058D01*
X112492208Y-33555956D01*
X112636869Y-33089035D01*
X112671318Y-32672379D01*
X112671318Y-31693454D01*
X112636869Y-31276714D01*
X112530543Y-30897711D01*
X112289758Y-30485393D01*
X112005385Y-30211387D01*
X111634625Y-29992977D01*
X111173013Y-29835658D01*
X110764495Y-29761065D01*
X110300478Y-29726247D01*
X110133147Y-29723879D01*
X105496441Y-29723879D01*
X105077534Y-29682541D01*
X104714609Y-29491180D01*
X104573030Y-29105798D01*
X104572226Y-29065401D01*
X104572226Y-28586685D01*
X104693092Y-28185997D01*
X105034630Y-27980515D01*
X105436543Y-27928853D01*
X105496441Y-27928206D01*
X112233635Y-27928206D01*
X112233635Y-26636650D01*
X105496441Y-26636650D01*
X105013505Y-26657689D01*
X104586697Y-26719236D01*
X104101673Y-26860237D01*
X103708619Y-27063474D01*
X103403068Y-27323360D01*
X103137380Y-27719368D01*
X102992719Y-28184249D01*
X102958269Y-28598408D01*
X102958269Y-29053677D01*
X102992719Y-29467753D01*
X103099044Y-29844596D01*
X103339830Y-30254852D01*
X103624202Y-30527664D01*
X103994962Y-30745236D01*
X104456574Y-30902025D01*
X104865092Y-30976395D01*
X105329109Y-31011120D01*
X105496441Y-31013482D01*
X110133147Y-31013482D01*
X110550924Y-31055797D01*
X110913155Y-31250744D01*
X111054603Y-31640961D01*
X111055408Y-31681730D01*
X111055408Y-32682149D01*
X110954763Y-33061739D01*
X110594581Y-33297205D01*
X110193039Y-33349739D01*
X110133147Y-33350397D01*
X103216189Y-33350397D01*
X103216189Y-34640000D01*
X110133147Y-34640000D01*
G37*
G36*
X115328681Y-34640000D02*
G01*
X115328681Y-33059260D01*
X113445080Y-33059260D01*
X113445080Y-34640000D01*
X115328681Y-34640000D01*
G37*
G36*
X124924494Y-34640000D02*
G01*
X124924494Y-33350397D01*
X118306489Y-33350397D01*
X118306489Y-31054515D01*
X124588415Y-31054515D01*
X124588415Y-29762958D01*
X118306489Y-29762958D01*
X118306489Y-27928206D01*
X124924494Y-27928206D01*
X124924494Y-26636650D01*
X116690579Y-26636650D01*
X116690579Y-34640000D01*
X124924494Y-34640000D01*
G37*
D12*
%TO.C,U1*%
X96350000Y-71595000D03*
X96350000Y-72865000D03*
X96350000Y-74135000D03*
X96350000Y-75405000D03*
X103650000Y-75405000D03*
X103650000Y-74135000D03*
X103650000Y-72865000D03*
X103650000Y-71595000D03*
%TD*%
D13*
%TO.C,*%
X81217000Y-39324349D03*
%TD*%
D14*
%TO.C,SW2*%
X96750000Y-79750000D03*
X103250000Y-79750000D03*
X96750000Y-84250000D03*
X103250000Y-84250000D03*
%TD*%
D15*
%TO.C,D6*%
X112415516Y-59069810D03*
X112703130Y-62357253D03*
X117584484Y-61930190D03*
X117296870Y-58642747D03*
%TD*%
D16*
%TO.C,D13*%
X91399621Y-95335690D03*
X89322864Y-92771108D03*
X85514849Y-95854778D03*
X87591606Y-98419360D03*
%TD*%
D17*
%TO.C,D5*%
X108771883Y-52627075D03*
X110848640Y-55191657D03*
X114656655Y-52107987D03*
X112579898Y-49543405D03*
%TD*%
D18*
%TO.C,D3*%
X94809911Y-50288125D03*
X97965718Y-49323298D03*
X96533097Y-44637405D03*
X93377290Y-45602232D03*
%TD*%
D19*
%TO.C,D9*%
X112760475Y-85605512D03*
X112472861Y-88892955D03*
X117354215Y-89320018D03*
X117641829Y-86032575D03*
%TD*%
D13*
%TO.C,*%
X118936000Y-39324349D03*
%TD*%
D14*
%TO.C,SW1*%
X96750000Y-62750000D03*
X103250000Y-62750000D03*
X96750000Y-67250000D03*
X103250000Y-67250000D03*
%TD*%
D20*
%TO.C,D7*%
X112550000Y-67350000D03*
X112550000Y-70650000D03*
X117450000Y-70650000D03*
X117450000Y-67350000D03*
%TD*%
D21*
%TO.C,D4*%
X102148441Y-49323298D03*
X105304248Y-50288125D03*
X106736869Y-45602232D03*
X103581062Y-44637405D03*
%TD*%
D20*
%TO.C,D16*%
X87450000Y-70650000D03*
X87450000Y-67350000D03*
X82550000Y-67350000D03*
X82550000Y-70650000D03*
%TD*%
D22*
%TO.C,D10*%
X110905985Y-92771108D03*
X108829228Y-95335690D03*
X112637243Y-98419360D03*
X114714000Y-95854778D03*
%TD*%
D13*
%TO.C,*%
X118936000Y-39324349D03*
%TD*%
D23*
%TO.C,D12*%
X98023063Y-98639467D03*
X94867256Y-97674640D03*
X93434635Y-102360533D03*
X96590442Y-103325360D03*
%TD*%
D24*
%TO.C,D14*%
X87755988Y-88892955D03*
X87468374Y-85605512D03*
X82587020Y-86032575D03*
X82874634Y-89320018D03*
%TD*%
D20*
%TO.C,D8*%
X112550000Y-76850000D03*
X112550000Y-80150000D03*
X117450000Y-80150000D03*
X117450000Y-76850000D03*
%TD*%
D13*
%TO.C,*%
X81217000Y-39324349D03*
%TD*%
D25*
%TO.C,D11*%
X105361593Y-97674640D03*
X102205786Y-98639467D03*
X103638407Y-103325360D03*
X106794214Y-102360533D03*
%TD*%
D20*
%TO.C,D15*%
X87450000Y-80150000D03*
X87450000Y-76850000D03*
X82550000Y-76850000D03*
X82550000Y-80150000D03*
%TD*%
D26*
%TO.C,D2*%
X89265519Y-55191657D03*
X91342276Y-52627075D03*
X87534261Y-49543405D03*
X85457504Y-52107987D03*
%TD*%
D27*
%TO.C,D1*%
X87411029Y-62357253D03*
X87698643Y-59069810D03*
X82817289Y-58642747D03*
X82529675Y-61930190D03*
%TD*%
D28*
%TO.C,J1*%
X98725000Y-90000000D03*
D29*
X101265000Y-90000000D03*
%TD*%
D30*
%TO.C,VR1*%
X102540000Y-58000000D03*
D31*
X100000000Y-58000000D03*
X97460000Y-58000000D03*
%TD*%
M02*
