%TF.GenerationSoftware,KiCad,Pcbnew,8.0.2*%
%TF.CreationDate,2024-06-06T14:13:48+02:00*%
%TF.ProjectId,nollbricka24,6e6f6c6c-6272-4696-936b-6132342e6b69,rev?*%
%TF.SameCoordinates,Original*%
%TF.FileFunction,Paste,Top*%
%TF.FilePolarity,Positive*%
%FSLAX46Y46*%
G04 Gerber Fmt 4.6, Leading zero omitted, Abs format (unit mm)*
G04 Created by KiCad (PCBNEW 8.0.2) date 2024-06-06 14:13:48*
%MOMM*%
%LPD*%
G01*
G04 APERTURE LIST*
G04 Aperture macros list*
%AMRotRect*
0 Rectangle, with rotation*
0 The origin of the aperture is its center*
0 $1 length*
0 $2 width*
0 $3 Rotation angle, in degrees counterclockwise*
0 Add horizontal line*
21,1,$1,$2,0,0,$3*%
G04 Aperture macros list end*
%ADD10R,1.700000X0.650000*%
%ADD11RotRect,2.000000X1.200000X5.000000*%
%ADD12RotRect,2.000000X1.200000X219.000000*%
%ADD13RotRect,2.000000X1.200000X39.000000*%
%ADD14RotRect,2.000000X1.200000X107.000000*%
%ADD15RotRect,2.000000X1.200000X355.000000*%
%ADD16R,2.000000X1.200000*%
%ADD17RotRect,2.000000X1.200000X73.000000*%
%ADD18RotRect,2.000000X1.200000X321.000000*%
%ADD19RotRect,2.000000X1.200000X253.000000*%
%ADD20RotRect,2.000000X1.200000X185.000000*%
%ADD21RotRect,2.000000X1.200000X287.000000*%
%ADD22RotRect,2.000000X1.200000X141.000000*%
%ADD23RotRect,2.000000X1.200000X175.000000*%
G04 APERTURE END LIST*
D10*
%TO.C,U1*%
X96350000Y-71595000D03*
X96350000Y-72865000D03*
X96350000Y-74135000D03*
X96350000Y-75405000D03*
X103650000Y-75405000D03*
X103650000Y-74135000D03*
X103650000Y-72865000D03*
X103650000Y-71595000D03*
%TD*%
D11*
%TO.C,D6*%
X112415516Y-59069810D03*
X112703130Y-62357253D03*
X117584484Y-61930190D03*
X117296870Y-58642747D03*
%TD*%
D12*
%TO.C,D13*%
X91399621Y-95335690D03*
X89322864Y-92771108D03*
X85514849Y-95854778D03*
X87591606Y-98419360D03*
%TD*%
D13*
%TO.C,D5*%
X108771883Y-52627075D03*
X110848640Y-55191657D03*
X114656655Y-52107987D03*
X112579898Y-49543405D03*
%TD*%
D14*
%TO.C,D3*%
X94809911Y-50288125D03*
X97965718Y-49323298D03*
X96533097Y-44637405D03*
X93377290Y-45602232D03*
%TD*%
D15*
%TO.C,D9*%
X112760475Y-85605512D03*
X112472861Y-88892955D03*
X117354215Y-89320018D03*
X117641829Y-86032575D03*
%TD*%
D16*
%TO.C,D7*%
X112550000Y-67350000D03*
X112550000Y-70650000D03*
X117450000Y-70650000D03*
X117450000Y-67350000D03*
%TD*%
D17*
%TO.C,D4*%
X102148441Y-49323298D03*
X105304248Y-50288125D03*
X106736869Y-45602232D03*
X103581062Y-44637405D03*
%TD*%
D16*
%TO.C,D16*%
X87450000Y-70650000D03*
X87450000Y-67350000D03*
X82550000Y-67350000D03*
X82550000Y-70650000D03*
%TD*%
D18*
%TO.C,D10*%
X110905985Y-92771108D03*
X108829228Y-95335690D03*
X112637243Y-98419360D03*
X114714000Y-95854778D03*
%TD*%
D19*
%TO.C,D12*%
X98023063Y-98639467D03*
X94867256Y-97674640D03*
X93434635Y-102360533D03*
X96590442Y-103325360D03*
%TD*%
D20*
%TO.C,D14*%
X87755988Y-88892955D03*
X87468374Y-85605512D03*
X82587020Y-86032575D03*
X82874634Y-89320018D03*
%TD*%
D16*
%TO.C,D8*%
X112550000Y-76850000D03*
X112550000Y-80150000D03*
X117450000Y-80150000D03*
X117450000Y-76850000D03*
%TD*%
D21*
%TO.C,D11*%
X105361593Y-97674640D03*
X102205786Y-98639467D03*
X103638407Y-103325360D03*
X106794214Y-102360533D03*
%TD*%
D16*
%TO.C,D15*%
X87450000Y-80150000D03*
X87450000Y-76850000D03*
X82550000Y-76850000D03*
X82550000Y-80150000D03*
%TD*%
D22*
%TO.C,D2*%
X89265519Y-55191657D03*
X91342276Y-52627075D03*
X87534261Y-49543405D03*
X85457504Y-52107987D03*
%TD*%
D23*
%TO.C,D1*%
X87411029Y-62357253D03*
X87698643Y-59069810D03*
X82817289Y-58642747D03*
X82529675Y-61930190D03*
%TD*%
M02*
